<?xml version="1.0"?><svg xmlns="http://www.w3.org/2000/svg" width="540" height="623"><rect x="0" y="0" width="100%" height="100%" fill="rgb(108, 92, 231)" /><polyline points="0,51.961524227066,30,0,90,0,120,51.961524227066,90,103.92304845413,30,103.92304845413,0,51.961524227066" stroke="#000" stroke-opacity="0.02" fill-opacity="0.15" fill="#222" transform="translate(-60, -51.961524227066)" /><polyline points="0,51.961524227066,30,0,90,0,120,51.961524227066,90,103.92304845413,30,103.92304845413,0,51.961524227066" stroke="#000" stroke-opacity="0.02" fill-opacity="0.15" fill="#222" transform="translate(480, -51.961524227066)" /><polyline points="0,51.961524227066,30,0,90,0,120,51.961524227066,90,103.92304845413,30,103.92304845413,0,51.961524227066" stroke="#000" stroke-opacity="0.02" fill-opacity="0.15" fill="#222" transform="translate(-60, 571.57676649773)" /><polyline points="0,51.961524227066,30,0,90,0,120,51.961524227066,90,103.92304845413,30,103.92304845413,0,51.961524227066" stroke="#000" stroke-opacity="0.02" fill-opacity="0.15" fill="#222" transform="translate(480, 571.57676649773)" /><polyline points="0,51.961524227066,30,0,90,0,120,51.961524227066,90,103.92304845413,30,103.92304845413,0,51.961524227066" stroke="#000" stroke-opacity="0.02" fill-opacity="0.15" fill="#222" transform="translate(30, 0)" /><polyline points="0,51.961524227066,30,0,90,0,120,51.961524227066,90,103.92304845413,30,103.92304845413,0,51.961524227066" stroke="#000" stroke-opacity="0.02" fill-opacity="0.15" fill="#222" transform="translate(30, 623.5382907248)" /><polyline points="0,51.961524227066,30,0,90,0,120,51.961524227066,90,103.92304845413,30,103.92304845413,0,51.961524227066" stroke="#000" stroke-opacity="0.02" fill-opacity="0.11533333333333" fill="#222" transform="translate(120, -51.961524227066)" /><polyline points="0,51.961524227066,30,0,90,0,120,51.961524227066,90,103.92304845413,30,103.92304845413,0,51.961524227066" stroke="#000" stroke-opacity="0.02" fill-opacity="0.11533333333333" fill="#222" transform="translate(120, 571.57676649773)" /><polyline points="0,51.961524227066,30,0,90,0,120,51.961524227066,90,103.92304845413,30,103.92304845413,0,51.961524227066" stroke="#000" stroke-opacity="0.02" fill-opacity="0.10666666666667" fill="#ddd" transform="translate(210, 0)" /><polyline points="0,51.961524227066,30,0,90,0,120,51.961524227066,90,103.92304845413,30,103.92304845413,0,51.961524227066" stroke="#000" stroke-opacity="0.02" fill-opacity="0.10666666666667" fill="#ddd" transform="translate(210, 623.5382907248)" /><polyline points="0,51.961524227066,30,0,90,0,120,51.961524227066,90,103.92304845413,30,103.92304845413,0,51.961524227066" stroke="#000" stroke-opacity="0.02" fill-opacity="0.14133333333333" fill="#ddd" transform="translate(300, -51.961524227066)" /><polyline points="0,51.961524227066,30,0,90,0,120,51.961524227066,90,103.92304845413,30,103.92304845413,0,51.961524227066" stroke="#000" stroke-opacity="0.02" fill-opacity="0.14133333333333" fill="#ddd" transform="translate(300, 571.57676649773)" /><polyline points="0,51.961524227066,30,0,90,0,120,51.961524227066,90,103.92304845413,30,103.92304845413,0,51.961524227066" stroke="#000" stroke-opacity="0.02" fill-opacity="0.02" fill="#ddd" transform="translate(390, 0)" /><polyline points="0,51.961524227066,30,0,90,0,120,51.961524227066,90,103.92304845413,30,103.92304845413,0,51.961524227066" stroke="#000" stroke-opacity="0.02" fill-opacity="0.02" fill="#ddd" transform="translate(390, 623.5382907248)" /><polyline points="0,51.961524227066,30,0,90,0,120,51.961524227066,90,103.92304845413,30,103.92304845413,0,51.961524227066" stroke="#000" stroke-opacity="0.02" fill-opacity="0.10666666666667" fill="#ddd" transform="translate(-60, 51.961524227066)" /><polyline points="0,51.961524227066,30,0,90,0,120,51.961524227066,90,103.92304845413,30,103.92304845413,0,51.961524227066" stroke="#000" stroke-opacity="0.02" fill-opacity="0.10666666666667" fill="#ddd" transform="translate(480, 51.961524227066)" /><polyline points="0,51.961524227066,30,0,90,0,120,51.961524227066,90,103.92304845413,30,103.92304845413,0,51.961524227066" stroke="#000" stroke-opacity="0.02" fill-opacity="0.037333333333333" fill="#ddd" transform="translate(30, 103.92304845413)" /><polyline points="0,51.961524227066,30,0,90,0,120,51.961524227066,90,103.92304845413,30,103.92304845413,0,51.961524227066" stroke="#000" stroke-opacity="0.02" fill-opacity="0.098" fill="#222" transform="translate(120, 51.961524227066)" /><polyline points="0,51.961524227066,30,0,90,0,120,51.961524227066,90,103.92304845413,30,103.92304845413,0,51.961524227066" stroke="#000" stroke-opacity="0.02" fill-opacity="0.098" fill="#222" transform="translate(210, 103.92304845413)" /><polyline points="0,51.961524227066,30,0,90,0,120,51.961524227066,90,103.92304845413,30,103.92304845413,0,51.961524227066" stroke="#000" stroke-opacity="0.02" fill-opacity="0.037333333333333" fill="#ddd" transform="translate(300, 51.961524227066)" /><polyline points="0,51.961524227066,30,0,90,0,120,51.961524227066,90,103.92304845413,30,103.92304845413,0,51.961524227066" stroke="#000" stroke-opacity="0.02" fill-opacity="0.11533333333333" fill="#222" transform="translate(390, 103.92304845413)" /><polyline points="0,51.961524227066,30,0,90,0,120,51.961524227066,90,103.92304845413,30,103.92304845413,0,51.961524227066" stroke="#000" stroke-opacity="0.02" fill-opacity="0.054666666666667" fill="#ddd" transform="translate(-60, 155.8845726812)" /><polyline points="0,51.961524227066,30,0,90,0,120,51.961524227066,90,103.92304845413,30,103.92304845413,0,51.961524227066" stroke="#000" stroke-opacity="0.02" fill-opacity="0.054666666666667" fill="#ddd" transform="translate(480, 155.8845726812)" /><polyline points="0,51.961524227066,30,0,90,0,120,51.961524227066,90,103.92304845413,30,103.92304845413,0,51.961524227066" stroke="#000" stroke-opacity="0.02" fill-opacity="0.089333333333333" fill="#ddd" transform="translate(30, 207.84609690827)" /><polyline points="0,51.961524227066,30,0,90,0,120,51.961524227066,90,103.92304845413,30,103.92304845413,0,51.961524227066" stroke="#000" stroke-opacity="0.02" fill-opacity="0.098" fill="#222" transform="translate(120, 155.8845726812)" /><polyline points="0,51.961524227066,30,0,90,0,120,51.961524227066,90,103.92304845413,30,103.92304845413,0,51.961524227066" stroke="#000" stroke-opacity="0.02" fill-opacity="0.072" fill="#ddd" transform="translate(210, 207.84609690827)" /><polyline points="0,51.961524227066,30,0,90,0,120,51.961524227066,90,103.92304845413,30,103.92304845413,0,51.961524227066" stroke="#000" stroke-opacity="0.02" fill-opacity="0.037333333333333" fill="#ddd" transform="translate(300, 155.8845726812)" /><polyline points="0,51.961524227066,30,0,90,0,120,51.961524227066,90,103.92304845413,30,103.92304845413,0,51.961524227066" stroke="#000" stroke-opacity="0.02" fill-opacity="0.089333333333333" fill="#ddd" transform="translate(390, 207.84609690827)" /><polyline points="0,51.961524227066,30,0,90,0,120,51.961524227066,90,103.92304845413,30,103.92304845413,0,51.961524227066" stroke="#000" stroke-opacity="0.02" fill-opacity="0.02" fill="#ddd" transform="translate(-60, 259.80762113533)" /><polyline points="0,51.961524227066,30,0,90,0,120,51.961524227066,90,103.92304845413,30,103.92304845413,0,51.961524227066" stroke="#000" stroke-opacity="0.02" fill-opacity="0.02" fill="#ddd" transform="translate(480, 259.80762113533)" /><polyline points="0,51.961524227066,30,0,90,0,120,51.961524227066,90,103.92304845413,30,103.92304845413,0,51.961524227066" stroke="#000" stroke-opacity="0.02" fill-opacity="0.072" fill="#ddd" transform="translate(30, 311.7691453624)" /><polyline points="0,51.961524227066,30,0,90,0,120,51.961524227066,90,103.92304845413,30,103.92304845413,0,51.961524227066" stroke="#000" stroke-opacity="0.02" fill-opacity="0.063333333333333" fill="#222" transform="translate(120, 259.80762113533)" /><polyline points="0,51.961524227066,30,0,90,0,120,51.961524227066,90,103.92304845413,30,103.92304845413,0,51.961524227066" stroke="#000" stroke-opacity="0.02" fill-opacity="0.063333333333333" fill="#222" transform="translate(210, 311.7691453624)" /><polyline points="0,51.961524227066,30,0,90,0,120,51.961524227066,90,103.92304845413,30,103.92304845413,0,51.961524227066" stroke="#000" stroke-opacity="0.02" fill-opacity="0.063333333333333" fill="#222" transform="translate(300, 259.80762113533)" /><polyline points="0,51.961524227066,30,0,90,0,120,51.961524227066,90,103.92304845413,30,103.92304845413,0,51.961524227066" stroke="#000" stroke-opacity="0.02" fill-opacity="0.11533333333333" fill="#222" transform="translate(390, 311.7691453624)" /><polyline points="0,51.961524227066,30,0,90,0,120,51.961524227066,90,103.92304845413,30,103.92304845413,0,51.961524227066" stroke="#000" stroke-opacity="0.02" fill-opacity="0.15" fill="#222" transform="translate(-60, 363.73066958946)" /><polyline points="0,51.961524227066,30,0,90,0,120,51.961524227066,90,103.92304845413,30,103.92304845413,0,51.961524227066" stroke="#000" stroke-opacity="0.02" fill-opacity="0.15" fill="#222" transform="translate(480, 363.73066958946)" /><polyline points="0,51.961524227066,30,0,90,0,120,51.961524227066,90,103.92304845413,30,103.92304845413,0,51.961524227066" stroke="#000" stroke-opacity="0.02" fill-opacity="0.063333333333333" fill="#222" transform="translate(30, 415.69219381653)" /><polyline points="0,51.961524227066,30,0,90,0,120,51.961524227066,90,103.92304845413,30,103.92304845413,0,51.961524227066" stroke="#000" stroke-opacity="0.02" fill-opacity="0.13266666666667" fill="#222" transform="translate(120, 363.73066958946)" /><polyline points="0,51.961524227066,30,0,90,0,120,51.961524227066,90,103.92304845413,30,103.92304845413,0,51.961524227066" stroke="#000" stroke-opacity="0.02" fill-opacity="0.028666666666667" fill="#222" transform="translate(210, 415.69219381653)" /><polyline points="0,51.961524227066,30,0,90,0,120,51.961524227066,90,103.92304845413,30,103.92304845413,0,51.961524227066" stroke="#000" stroke-opacity="0.02" fill-opacity="0.098" fill="#222" transform="translate(300, 363.73066958946)" /><polyline points="0,51.961524227066,30,0,90,0,120,51.961524227066,90,103.92304845413,30,103.92304845413,0,51.961524227066" stroke="#000" stroke-opacity="0.02" fill-opacity="0.028666666666667" fill="#222" transform="translate(390, 415.69219381653)" /><polyline points="0,51.961524227066,30,0,90,0,120,51.961524227066,90,103.92304845413,30,103.92304845413,0,51.961524227066" stroke="#000" stroke-opacity="0.02" fill-opacity="0.054666666666667" fill="#ddd" transform="translate(-60, 467.6537180436)" /><polyline points="0,51.961524227066,30,0,90,0,120,51.961524227066,90,103.92304845413,30,103.92304845413,0,51.961524227066" stroke="#000" stroke-opacity="0.02" fill-opacity="0.054666666666667" fill="#ddd" transform="translate(480, 467.6537180436)" /><polyline points="0,51.961524227066,30,0,90,0,120,51.961524227066,90,103.92304845413,30,103.92304845413,0,51.961524227066" stroke="#000" stroke-opacity="0.02" fill-opacity="0.054666666666667" fill="#ddd" transform="translate(30, 519.61524227066)" /><polyline points="0,51.961524227066,30,0,90,0,120,51.961524227066,90,103.92304845413,30,103.92304845413,0,51.961524227066" stroke="#000" stroke-opacity="0.02" fill-opacity="0.063333333333333" fill="#222" transform="translate(120, 467.6537180436)" /><polyline points="0,51.961524227066,30,0,90,0,120,51.961524227066,90,103.92304845413,30,103.92304845413,0,51.961524227066" stroke="#000" stroke-opacity="0.02" fill-opacity="0.072" fill="#ddd" transform="translate(210, 519.61524227066)" /><polyline points="0,51.961524227066,30,0,90,0,120,51.961524227066,90,103.92304845413,30,103.92304845413,0,51.961524227066" stroke="#000" stroke-opacity="0.02" fill-opacity="0.098" fill="#222" transform="translate(300, 467.6537180436)" /><polyline points="0,51.961524227066,30,0,90,0,120,51.961524227066,90,103.92304845413,30,103.92304845413,0,51.961524227066" stroke="#000" stroke-opacity="0.02" fill-opacity="0.098" fill="#222" transform="translate(390, 519.61524227066)" /></svg>