<?xml version="1.0"?><svg xmlns="http://www.w3.org/2000/svg" width="118" height="118"><rect x="0" y="0" width="100%" height="100%" fill="rgb(162, 155, 254)" /><g fill="#ddd" style="opacity:0.054666666666667;" transform="translate(-19.803, -19.803) rotate(45, 19.803, 19.803)" ><rect x="14" y="0" width="14" height="42" /><rect x="0" y="14" width="42" height="14" /></g><g fill="#ddd" style="opacity:0.054666666666667;" transform="translate(99.015, -19.803) rotate(45, 19.803, 19.803)" ><rect x="14" y="0" width="14" height="42" /><rect x="0" y="14" width="42" height="14" /></g><g fill="#ddd" style="opacity:0.054666666666667;" transform="translate(-19.803, 99.015) rotate(45, 19.803, 19.803)" ><rect x="14" y="0" width="14" height="42" /><rect x="0" y="14" width="42" height="14" /></g><g fill="#ddd" style="opacity:0.054666666666667;" transform="translate(99.015, 99.015) rotate(45, 19.803, 19.803)" ><rect x="14" y="0" width="14" height="42" /><rect x="0" y="14" width="42" height="14" /></g><g fill="#222" style="opacity:0.15;" transform="translate(0, -9.9015) rotate(45, 19.803, 19.803)" ><rect x="14" y="0" width="14" height="42" /><rect x="0" y="14" width="42" height="14" /></g><g fill="#222" style="opacity:0.15;" transform="translate(0, 108.9165) rotate(45, 19.803, 19.803)" ><rect x="14" y="0" width="14" height="42" /><rect x="0" y="14" width="42" height="14" /></g><g fill="#ddd" style="opacity:0.10666666666667;" transform="translate(19.803, -19.803) rotate(45, 19.803, 19.803)" ><rect x="14" y="0" width="14" height="42" /><rect x="0" y="14" width="42" height="14" /></g><g fill="#ddd" style="opacity:0.10666666666667;" transform="translate(19.803, 99.015) rotate(45, 19.803, 19.803)" ><rect x="14" y="0" width="14" height="42" /><rect x="0" y="14" width="42" height="14" /></g><g fill="#222" style="opacity:0.063333333333333;" transform="translate(39.606, -9.9015) rotate(45, 19.803, 19.803)" ><rect x="14" y="0" width="14" height="42" /><rect x="0" y="14" width="42" height="14" /></g><g fill="#222" style="opacity:0.063333333333333;" transform="translate(39.606, 108.9165) rotate(45, 19.803, 19.803)" ><rect x="14" y="0" width="14" height="42" /><rect x="0" y="14" width="42" height="14" /></g><g fill="#ddd" style="opacity:0.072;" transform="translate(59.409, -19.803) rotate(45, 19.803, 19.803)" ><rect x="14" y="0" width="14" height="42" /><rect x="0" y="14" width="42" height="14" /></g><g fill="#ddd" style="opacity:0.072;" transform="translate(59.409, 99.015) rotate(45, 19.803, 19.803)" ><rect x="14" y="0" width="14" height="42" /><rect x="0" y="14" width="42" height="14" /></g><g fill="#222" style="opacity:0.046;" transform="translate(79.212, -9.9015) rotate(45, 19.803, 19.803)" ><rect x="14" y="0" width="14" height="42" /><rect x="0" y="14" width="42" height="14" /></g><g fill="#222" style="opacity:0.046;" transform="translate(79.212, 108.9165) rotate(45, 19.803, 19.803)" ><rect x="14" y="0" width="14" height="42" /><rect x="0" y="14" width="42" height="14" /></g><g fill="#222" style="opacity:0.046;" transform="translate(-19.803, 0) rotate(45, 19.803, 19.803)" ><rect x="14" y="0" width="14" height="42" /><rect x="0" y="14" width="42" height="14" /></g><g fill="#222" style="opacity:0.046;" transform="translate(99.015, 0) rotate(45, 19.803, 19.803)" ><rect x="14" y="0" width="14" height="42" /><rect x="0" y="14" width="42" height="14" /></g><g fill="#222" style="opacity:0.080666666666667;" transform="translate(0, 9.9015) rotate(45, 19.803, 19.803)" ><rect x="14" y="0" width="14" height="42" /><rect x="0" y="14" width="42" height="14" /></g><g fill="#ddd" style="opacity:0.124;" transform="translate(19.803, 0) rotate(45, 19.803, 19.803)" ><rect x="14" y="0" width="14" height="42" /><rect x="0" y="14" width="42" height="14" /></g><g fill="#ddd" style="opacity:0.124;" transform="translate(39.606, 9.9015) rotate(45, 19.803, 19.803)" ><rect x="14" y="0" width="14" height="42" /><rect x="0" y="14" width="42" height="14" /></g><g fill="#ddd" style="opacity:0.054666666666667;" transform="translate(59.409, 0) rotate(45, 19.803, 19.803)" ><rect x="14" y="0" width="14" height="42" /><rect x="0" y="14" width="42" height="14" /></g><g fill="#ddd" style="opacity:0.124;" transform="translate(79.212, 9.9015) rotate(45, 19.803, 19.803)" ><rect x="14" y="0" width="14" height="42" /><rect x="0" y="14" width="42" height="14" /></g><g fill="#ddd" style="opacity:0.10666666666667;" transform="translate(-19.803, 19.803) rotate(45, 19.803, 19.803)" ><rect x="14" y="0" width="14" height="42" /><rect x="0" y="14" width="42" height="14" /></g><g fill="#ddd" style="opacity:0.10666666666667;" transform="translate(99.015, 19.803) rotate(45, 19.803, 19.803)" ><rect x="14" y="0" width="14" height="42" /><rect x="0" y="14" width="42" height="14" /></g><g fill="#222" style="opacity:0.13266666666667;" transform="translate(0, 29.7045) rotate(45, 19.803, 19.803)" ><rect x="14" y="0" width="14" height="42" /><rect x="0" y="14" width="42" height="14" /></g><g fill="#ddd" style="opacity:0.124;" transform="translate(19.803, 19.803) rotate(45, 19.803, 19.803)" ><rect x="14" y="0" width="14" height="42" /><rect x="0" y="14" width="42" height="14" /></g><g fill="#222" style="opacity:0.028666666666667;" transform="translate(39.606, 29.7045) rotate(45, 19.803, 19.803)" ><rect x="14" y="0" width="14" height="42" /><rect x="0" y="14" width="42" height="14" /></g><g fill="#222" style="opacity:0.080666666666667;" transform="translate(59.409, 19.803) rotate(45, 19.803, 19.803)" ><rect x="14" y="0" width="14" height="42" /><rect x="0" y="14" width="42" height="14" /></g><g fill="#ddd" style="opacity:0.037333333333333;" transform="translate(79.212, 29.7045) rotate(45, 19.803, 19.803)" ><rect x="14" y="0" width="14" height="42" /><rect x="0" y="14" width="42" height="14" /></g><g fill="#ddd" style="opacity:0.037333333333333;" transform="translate(-19.803, 39.606) rotate(45, 19.803, 19.803)" ><rect x="14" y="0" width="14" height="42" /><rect x="0" y="14" width="42" height="14" /></g><g fill="#ddd" style="opacity:0.037333333333333;" transform="translate(99.015, 39.606) rotate(45, 19.803, 19.803)" ><rect x="14" y="0" width="14" height="42" /><rect x="0" y="14" width="42" height="14" /></g><g fill="#222" style="opacity:0.098;" transform="translate(0, 49.5075) rotate(45, 19.803, 19.803)" ><rect x="14" y="0" width="14" height="42" /><rect x="0" y="14" width="42" height="14" /></g><g fill="#222" style="opacity:0.046;" transform="translate(19.803, 39.606) rotate(45, 19.803, 19.803)" ><rect x="14" y="0" width="14" height="42" /><rect x="0" y="14" width="42" height="14" /></g><g fill="#222" style="opacity:0.13266666666667;" transform="translate(39.606, 49.5075) rotate(45, 19.803, 19.803)" ><rect x="14" y="0" width="14" height="42" /><rect x="0" y="14" width="42" height="14" /></g><g fill="#222" style="opacity:0.063333333333333;" transform="translate(59.409, 39.606) rotate(45, 19.803, 19.803)" ><rect x="14" y="0" width="14" height="42" /><rect x="0" y="14" width="42" height="14" /></g><g fill="#ddd" style="opacity:0.054666666666667;" transform="translate(79.212, 49.5075) rotate(45, 19.803, 19.803)" ><rect x="14" y="0" width="14" height="42" /><rect x="0" y="14" width="42" height="14" /></g><g fill="#ddd" style="opacity:0.089333333333333;" transform="translate(-19.803, 59.409) rotate(45, 19.803, 19.803)" ><rect x="14" y="0" width="14" height="42" /><rect x="0" y="14" width="42" height="14" /></g><g fill="#ddd" style="opacity:0.089333333333333;" transform="translate(99.015, 59.409) rotate(45, 19.803, 19.803)" ><rect x="14" y="0" width="14" height="42" /><rect x="0" y="14" width="42" height="14" /></g><g fill="#ddd" style="opacity:0.14133333333333;" transform="translate(0, 69.3105) rotate(45, 19.803, 19.803)" ><rect x="14" y="0" width="14" height="42" /><rect x="0" y="14" width="42" height="14" /></g><g fill="#222" style="opacity:0.063333333333333;" transform="translate(19.803, 59.409) rotate(45, 19.803, 19.803)" ><rect x="14" y="0" width="14" height="42" /><rect x="0" y="14" width="42" height="14" /></g><g fill="#222" style="opacity:0.11533333333333;" transform="translate(39.606, 69.3105) rotate(45, 19.803, 19.803)" ><rect x="14" y="0" width="14" height="42" /><rect x="0" y="14" width="42" height="14" /></g><g fill="#222" style="opacity:0.028666666666667;" transform="translate(59.409, 59.409) rotate(45, 19.803, 19.803)" ><rect x="14" y="0" width="14" height="42" /><rect x="0" y="14" width="42" height="14" /></g><g fill="#ddd" style="opacity:0.10666666666667;" transform="translate(79.212, 69.3105) rotate(45, 19.803, 19.803)" ><rect x="14" y="0" width="14" height="42" /><rect x="0" y="14" width="42" height="14" /></g><g fill="#ddd" style="opacity:0.10666666666667;" transform="translate(-19.803, 79.212) rotate(45, 19.803, 19.803)" ><rect x="14" y="0" width="14" height="42" /><rect x="0" y="14" width="42" height="14" /></g><g fill="#ddd" style="opacity:0.10666666666667;" transform="translate(99.015, 79.212) rotate(45, 19.803, 19.803)" ><rect x="14" y="0" width="14" height="42" /><rect x="0" y="14" width="42" height="14" /></g><g fill="#ddd" style="opacity:0.10666666666667;" transform="translate(-19.803, -39.606) rotate(45, 19.803, 19.803)" ><rect x="14" y="0" width="14" height="42" /><rect x="0" y="14" width="42" height="14" /></g><g fill="#ddd" style="opacity:0.02;" transform="translate(0, 89.1135) rotate(45, 19.803, 19.803)" ><rect x="14" y="0" width="14" height="42" /><rect x="0" y="14" width="42" height="14" /></g><g fill="#ddd" style="opacity:0.02;" transform="translate(0, -29.7045) rotate(45, 19.803, 19.803)" ><rect x="14" y="0" width="14" height="42" /><rect x="0" y="14" width="42" height="14" /></g><g fill="#222" style="opacity:0.063333333333333;" transform="translate(19.803, 79.212) rotate(45, 19.803, 19.803)" ><rect x="14" y="0" width="14" height="42" /><rect x="0" y="14" width="42" height="14" /></g><g fill="#222" style="opacity:0.063333333333333;" transform="translate(19.803, -39.606) rotate(45, 19.803, 19.803)" ><rect x="14" y="0" width="14" height="42" /><rect x="0" y="14" width="42" height="14" /></g><g fill="#222" style="opacity:0.13266666666667;" transform="translate(39.606, 89.1135) rotate(45, 19.803, 19.803)" ><rect x="14" y="0" width="14" height="42" /><rect x="0" y="14" width="42" height="14" /></g><g fill="#222" style="opacity:0.13266666666667;" transform="translate(39.606, -29.7045) rotate(45, 19.803, 19.803)" ><rect x="14" y="0" width="14" height="42" /><rect x="0" y="14" width="42" height="14" /></g><g fill="#222" style="opacity:0.046;" transform="translate(59.409, 79.212) rotate(45, 19.803, 19.803)" ><rect x="14" y="0" width="14" height="42" /><rect x="0" y="14" width="42" height="14" /></g><g fill="#222" style="opacity:0.046;" transform="translate(59.409, -39.606) rotate(45, 19.803, 19.803)" ><rect x="14" y="0" width="14" height="42" /><rect x="0" y="14" width="42" height="14" /></g><g fill="#ddd" style="opacity:0.02;" transform="translate(79.212, 89.1135) rotate(45, 19.803, 19.803)" ><rect x="14" y="0" width="14" height="42" /><rect x="0" y="14" width="42" height="14" /></g><g fill="#ddd" style="opacity:0.02;" transform="translate(79.212, -29.7045) rotate(45, 19.803, 19.803)" ><rect x="14" y="0" width="14" height="42" /><rect x="0" y="14" width="42" height="14" /></g></svg>