<?xml version="1.0"?><svg xmlns="http://www.w3.org/2000/svg" width="168" height="96"><rect x="0" y="0" width="100%" height="100%" fill="rgb(9, 132, 227)" /><polyline points="0, 0, 28.001488055697, 16.166666666667, 0, 32.333333333333, 0, 0" fill="#ddd" fill-opacity="0.054666666666667" stroke="#000" stroke-opacity="0.02" transform="translate(0, -16.166666666667) rotate(180, 14.000744027848, 16.166666666667)" /><polyline points="0, 0, 28.001488055697, 16.166666666667, 0, 32.333333333333, 0, 0" fill="#ddd" fill-opacity="0.054666666666667" stroke="#000" stroke-opacity="0.02" transform="translate(0, 80.833333333333) rotate(180, 14.000744027848, 16.166666666667)" /><polyline points="0, 0, 28.001488055697, 16.166666666667, 0, 32.333333333333, 0, 0" fill="#ddd" fill-opacity="0.072" stroke="#000" stroke-opacity="0.02" transform="translate(28.001488055697, -16.166666666667) rotate(0, 14.000744027848, 16.166666666667)" /><polyline points="0, 0, 28.001488055697, 16.166666666667, 0, 32.333333333333, 0, 0" fill="#ddd" fill-opacity="0.072" stroke="#000" stroke-opacity="0.02" transform="translate(28.001488055697, 80.833333333333) rotate(0, 14.000744027848, 16.166666666667)" /><polyline points="0, 0, 28.001488055697, 16.166666666667, 0, 32.333333333333, 0, 0" fill="#222" fill-opacity="0.028666666666667" stroke="#000" stroke-opacity="0.02" transform="translate(56.002976111394, -16.166666666667) rotate(180, 14.000744027848, 16.166666666667)" /><polyline points="0, 0, 28.001488055697, 16.166666666667, 0, 32.333333333333, 0, 0" fill="#222" fill-opacity="0.028666666666667" stroke="#000" stroke-opacity="0.02" transform="translate(56.002976111394, 80.833333333333) rotate(180, 14.000744027848, 16.166666666667)" /><polyline points="0, 0, 28.001488055697, 16.166666666667, 0, 32.333333333333, 0, 0" fill="#222" fill-opacity="0.046" stroke="#000" stroke-opacity="0.02" transform="translate(84.004464167091, -16.166666666667) rotate(0, 14.000744027848, 16.166666666667)" /><polyline points="0, 0, 28.001488055697, 16.166666666667, 0, 32.333333333333, 0, 0" fill="#222" fill-opacity="0.046" stroke="#000" stroke-opacity="0.02" transform="translate(84.004464167091, 80.833333333333) rotate(0, 14.000744027848, 16.166666666667)" /><polyline points="0, 0, 28.001488055697, 16.166666666667, 0, 32.333333333333, 0, 0" fill="#ddd" fill-opacity="0.054666666666667" stroke="#000" stroke-opacity="0.02" transform="translate(112.00595222279, -16.166666666667) rotate(180, 14.000744027848, 16.166666666667)" /><polyline points="0, 0, 28.001488055697, 16.166666666667, 0, 32.333333333333, 0, 0" fill="#ddd" fill-opacity="0.054666666666667" stroke="#000" stroke-opacity="0.02" transform="translate(112.00595222279, 80.833333333333) rotate(180, 14.000744027848, 16.166666666667)" /><polyline points="0, 0, 28.001488055697, 16.166666666667, 0, 32.333333333333, 0, 0" fill="#ddd" fill-opacity="0.054666666666667" stroke="#000" stroke-opacity="0.02" transform="translate(140.00744027848, -16.166666666667) rotate(0, 14.000744027848, 16.166666666667)" /><polyline points="0, 0, 28.001488055697, 16.166666666667, 0, 32.333333333333, 0, 0" fill="#ddd" fill-opacity="0.054666666666667" stroke="#000" stroke-opacity="0.02" transform="translate(140.00744027848, 80.833333333333) rotate(0, 14.000744027848, 16.166666666667)" /><polyline points="0, 0, 28.001488055697, 16.166666666667, 0, 32.333333333333, 0, 0" fill="#222" fill-opacity="0.046" stroke="#000" stroke-opacity="0.02" transform="translate(0, 0) rotate(0, 14.000744027848, 16.166666666667)" /><polyline points="0, 0, 28.001488055697, 16.166666666667, 0, 32.333333333333, 0, 0" fill="#ddd" fill-opacity="0.089333333333333" stroke="#000" stroke-opacity="0.02" transform="translate(28.001488055697, 0) rotate(180, 14.000744027848, 16.166666666667)" /><polyline points="0, 0, 28.001488055697, 16.166666666667, 0, 32.333333333333, 0, 0" fill="#222" fill-opacity="0.063333333333333" stroke="#000" stroke-opacity="0.02" transform="translate(56.002976111394, 0) rotate(0, 14.000744027848, 16.166666666667)" /><polyline points="0, 0, 28.001488055697, 16.166666666667, 0, 32.333333333333, 0, 0" fill="#ddd" fill-opacity="0.054666666666667" stroke="#000" stroke-opacity="0.02" transform="translate(84.004464167091, 0) rotate(180, 14.000744027848, 16.166666666667)" /><polyline points="0, 0, 28.001488055697, 16.166666666667, 0, 32.333333333333, 0, 0" fill="#ddd" fill-opacity="0.10666666666667" stroke="#000" stroke-opacity="0.02" transform="translate(112.00595222279, 0) rotate(0, 14.000744027848, 16.166666666667)" /><polyline points="0, 0, 28.001488055697, 16.166666666667, 0, 32.333333333333, 0, 0" fill="#222" fill-opacity="0.11533333333333" stroke="#000" stroke-opacity="0.02" transform="translate(140.00744027848, 0) rotate(180, 14.000744027848, 16.166666666667)" /><polyline points="0, 0, 28.001488055697, 16.166666666667, 0, 32.333333333333, 0, 0" fill="#ddd" fill-opacity="0.124" stroke="#000" stroke-opacity="0.02" transform="translate(0, 16.166666666667) rotate(180, 14.000744027848, 16.166666666667)" /><polyline points="0, 0, 28.001488055697, 16.166666666667, 0, 32.333333333333, 0, 0" fill="#ddd" fill-opacity="0.14133333333333" stroke="#000" stroke-opacity="0.02" transform="translate(28.001488055697, 16.166666666667) rotate(0, 14.000744027848, 16.166666666667)" /><polyline points="0, 0, 28.001488055697, 16.166666666667, 0, 32.333333333333, 0, 0" fill="#222" fill-opacity="0.046" stroke="#000" stroke-opacity="0.02" transform="translate(56.002976111394, 16.166666666667) rotate(180, 14.000744027848, 16.166666666667)" /><polyline points="0, 0, 28.001488055697, 16.166666666667, 0, 32.333333333333, 0, 0" fill="#222" fill-opacity="0.080666666666667" stroke="#000" stroke-opacity="0.02" transform="translate(84.004464167091, 16.166666666667) rotate(0, 14.000744027848, 16.166666666667)" /><polyline points="0, 0, 28.001488055697, 16.166666666667, 0, 32.333333333333, 0, 0" fill="#222" fill-opacity="0.080666666666667" stroke="#000" stroke-opacity="0.02" transform="translate(112.00595222279, 16.166666666667) rotate(180, 14.000744027848, 16.166666666667)" /><polyline points="0, 0, 28.001488055697, 16.166666666667, 0, 32.333333333333, 0, 0" fill="#ddd" fill-opacity="0.037333333333333" stroke="#000" stroke-opacity="0.02" transform="translate(140.00744027848, 16.166666666667) rotate(0, 14.000744027848, 16.166666666667)" /><polyline points="0, 0, 28.001488055697, 16.166666666667, 0, 32.333333333333, 0, 0" fill="#ddd" fill-opacity="0.089333333333333" stroke="#000" stroke-opacity="0.02" transform="translate(0, 32.333333333333) rotate(0, 14.000744027848, 16.166666666667)" /><polyline points="0, 0, 28.001488055697, 16.166666666667, 0, 32.333333333333, 0, 0" fill="#222" fill-opacity="0.080666666666667" stroke="#000" stroke-opacity="0.02" transform="translate(28.001488055697, 32.333333333333) rotate(180, 14.000744027848, 16.166666666667)" /><polyline points="0, 0, 28.001488055697, 16.166666666667, 0, 32.333333333333, 0, 0" fill="#222" fill-opacity="0.15" stroke="#000" stroke-opacity="0.02" transform="translate(56.002976111394, 32.333333333333) rotate(0, 14.000744027848, 16.166666666667)" /><polyline points="0, 0, 28.001488055697, 16.166666666667, 0, 32.333333333333, 0, 0" fill="#222" fill-opacity="0.046" stroke="#000" stroke-opacity="0.02" transform="translate(84.004464167091, 32.333333333333) rotate(180, 14.000744027848, 16.166666666667)" /><polyline points="0, 0, 28.001488055697, 16.166666666667, 0, 32.333333333333, 0, 0" fill="#222" fill-opacity="0.046" stroke="#000" stroke-opacity="0.02" transform="translate(112.00595222279, 32.333333333333) rotate(0, 14.000744027848, 16.166666666667)" /><polyline points="0, 0, 28.001488055697, 16.166666666667, 0, 32.333333333333, 0, 0" fill="#222" fill-opacity="0.098" stroke="#000" stroke-opacity="0.02" transform="translate(140.00744027848, 32.333333333333) rotate(180, 14.000744027848, 16.166666666667)" /><polyline points="0, 0, 28.001488055697, 16.166666666667, 0, 32.333333333333, 0, 0" fill="#222" fill-opacity="0.063333333333333" stroke="#000" stroke-opacity="0.02" transform="translate(0, 48.5) rotate(180, 14.000744027848, 16.166666666667)" /><polyline points="0, 0, 28.001488055697, 16.166666666667, 0, 32.333333333333, 0, 0" fill="#ddd" fill-opacity="0.10666666666667" stroke="#000" stroke-opacity="0.02" transform="translate(28.001488055697, 48.5) rotate(0, 14.000744027848, 16.166666666667)" /><polyline points="0, 0, 28.001488055697, 16.166666666667, 0, 32.333333333333, 0, 0" fill="#ddd" fill-opacity="0.037333333333333" stroke="#000" stroke-opacity="0.02" transform="translate(56.002976111394, 48.5) rotate(180, 14.000744027848, 16.166666666667)" /><polyline points="0, 0, 28.001488055697, 16.166666666667, 0, 32.333333333333, 0, 0" fill="#222" fill-opacity="0.063333333333333" stroke="#000" stroke-opacity="0.02" transform="translate(84.004464167091, 48.5) rotate(0, 14.000744027848, 16.166666666667)" /><polyline points="0, 0, 28.001488055697, 16.166666666667, 0, 32.333333333333, 0, 0" fill="#222" fill-opacity="0.063333333333333" stroke="#000" stroke-opacity="0.02" transform="translate(112.00595222279, 48.5) rotate(180, 14.000744027848, 16.166666666667)" /><polyline points="0, 0, 28.001488055697, 16.166666666667, 0, 32.333333333333, 0, 0" fill="#ddd" fill-opacity="0.072" stroke="#000" stroke-opacity="0.02" transform="translate(140.00744027848, 48.5) rotate(0, 14.000744027848, 16.166666666667)" /><polyline points="0, 0, 28.001488055697, 16.166666666667, 0, 32.333333333333, 0, 0" fill="#222" fill-opacity="0.080666666666667" stroke="#000" stroke-opacity="0.02" transform="translate(0, 64.666666666667) rotate(0, 14.000744027848, 16.166666666667)" /><polyline points="0, 0, 28.001488055697, 16.166666666667, 0, 32.333333333333, 0, 0" fill="#222" fill-opacity="0.098" stroke="#000" stroke-opacity="0.02" transform="translate(28.001488055697, 64.666666666667) rotate(180, 14.000744027848, 16.166666666667)" /><polyline points="0, 0, 28.001488055697, 16.166666666667, 0, 32.333333333333, 0, 0" fill="#222" fill-opacity="0.098" stroke="#000" stroke-opacity="0.02" transform="translate(56.002976111394, 64.666666666667) rotate(0, 14.000744027848, 16.166666666667)" /><polyline points="0, 0, 28.001488055697, 16.166666666667, 0, 32.333333333333, 0, 0" fill="#ddd" fill-opacity="0.037333333333333" stroke="#000" stroke-opacity="0.02" transform="translate(84.004464167091, 64.666666666667) rotate(180, 14.000744027848, 16.166666666667)" /><polyline points="0, 0, 28.001488055697, 16.166666666667, 0, 32.333333333333, 0, 0" fill="#ddd" fill-opacity="0.10666666666667" stroke="#000" stroke-opacity="0.02" transform="translate(112.00595222279, 64.666666666667) rotate(0, 14.000744027848, 16.166666666667)" /><polyline points="0, 0, 28.001488055697, 16.166666666667, 0, 32.333333333333, 0, 0" fill="#222" fill-opacity="0.11533333333333" stroke="#000" stroke-opacity="0.02" transform="translate(140.00744027848, 64.666666666667) rotate(180, 14.000744027848, 16.166666666667)" /></svg>