<?xml version="1.0"?><svg xmlns="http://www.w3.org/2000/svg" width="477" height="551"><rect x="0" y="0" width="100%" height="100%" fill="rgb(223, 230, 233)" /><polyline points="0,45.957081427494,26.533333333333,0,79.6,0,106.13333333333,45.957081427494,79.6,91.914162854988,26.533333333333,91.914162854988,0,45.957081427494" stroke="#000" stroke-opacity="0.02" fill-opacity="0.13266666666667" fill="#222" transform="translate(-53.066666666667, -45.957081427494)" /><polyline points="0,45.957081427494,26.533333333333,0,79.6,0,106.13333333333,45.957081427494,79.6,91.914162854988,26.533333333333,91.914162854988,0,45.957081427494" stroke="#000" stroke-opacity="0.02" fill-opacity="0.13266666666667" fill="#222" transform="translate(424.53333333333, -45.957081427494)" /><polyline points="0,45.957081427494,26.533333333333,0,79.6,0,106.13333333333,45.957081427494,79.6,91.914162854988,26.533333333333,91.914162854988,0,45.957081427494" stroke="#000" stroke-opacity="0.02" fill-opacity="0.13266666666667" fill="#222" transform="translate(-53.066666666667, 505.52789570244)" /><polyline points="0,45.957081427494,26.533333333333,0,79.6,0,106.13333333333,45.957081427494,79.6,91.914162854988,26.533333333333,91.914162854988,0,45.957081427494" stroke="#000" stroke-opacity="0.02" fill-opacity="0.13266666666667" fill="#222" transform="translate(424.53333333333, 505.52789570244)" /><polyline points="0,45.957081427494,26.533333333333,0,79.6,0,106.13333333333,45.957081427494,79.6,91.914162854988,26.533333333333,91.914162854988,0,45.957081427494" stroke="#000" stroke-opacity="0.02" fill-opacity="0.089333333333333" fill="#ddd" transform="translate(26.533333333333, 0)" /><polyline points="0,45.957081427494,26.533333333333,0,79.6,0,106.13333333333,45.957081427494,79.6,91.914162854988,26.533333333333,91.914162854988,0,45.957081427494" stroke="#000" stroke-opacity="0.02" fill-opacity="0.089333333333333" fill="#ddd" transform="translate(26.533333333333, 551.48497712993)" /><polyline points="0,45.957081427494,26.533333333333,0,79.6,0,106.13333333333,45.957081427494,79.6,91.914162854988,26.533333333333,91.914162854988,0,45.957081427494" stroke="#000" stroke-opacity="0.02" fill-opacity="0.14133333333333" fill="#ddd" transform="translate(106.13333333333, -45.957081427494)" /><polyline points="0,45.957081427494,26.533333333333,0,79.6,0,106.13333333333,45.957081427494,79.6,91.914162854988,26.533333333333,91.914162854988,0,45.957081427494" stroke="#000" stroke-opacity="0.02" fill-opacity="0.14133333333333" fill="#ddd" transform="translate(106.13333333333, 505.52789570244)" /><polyline points="0,45.957081427494,26.533333333333,0,79.6,0,106.13333333333,45.957081427494,79.6,91.914162854988,26.533333333333,91.914162854988,0,45.957081427494" stroke="#000" stroke-opacity="0.02" fill-opacity="0.15" fill="#222" transform="translate(185.73333333333, 0)" /><polyline points="0,45.957081427494,26.533333333333,0,79.6,0,106.13333333333,45.957081427494,79.6,91.914162854988,26.533333333333,91.914162854988,0,45.957081427494" stroke="#000" stroke-opacity="0.02" fill-opacity="0.15" fill="#222" transform="translate(185.73333333333, 551.48497712993)" /><polyline points="0,45.957081427494,26.533333333333,0,79.6,0,106.13333333333,45.957081427494,79.6,91.914162854988,26.533333333333,91.914162854988,0,45.957081427494" stroke="#000" stroke-opacity="0.02" fill-opacity="0.028666666666667" fill="#222" transform="translate(265.33333333333, -45.957081427494)" /><polyline points="0,45.957081427494,26.533333333333,0,79.6,0,106.13333333333,45.957081427494,79.6,91.914162854988,26.533333333333,91.914162854988,0,45.957081427494" stroke="#000" stroke-opacity="0.02" fill-opacity="0.028666666666667" fill="#222" transform="translate(265.33333333333, 505.52789570244)" /><polyline points="0,45.957081427494,26.533333333333,0,79.6,0,106.13333333333,45.957081427494,79.6,91.914162854988,26.533333333333,91.914162854988,0,45.957081427494" stroke="#000" stroke-opacity="0.02" fill-opacity="0.15" fill="#222" transform="translate(344.93333333333, 0)" /><polyline points="0,45.957081427494,26.533333333333,0,79.6,0,106.13333333333,45.957081427494,79.6,91.914162854988,26.533333333333,91.914162854988,0,45.957081427494" stroke="#000" stroke-opacity="0.02" fill-opacity="0.15" fill="#222" transform="translate(344.93333333333, 551.48497712993)" /><polyline points="0,45.957081427494,26.533333333333,0,79.6,0,106.13333333333,45.957081427494,79.6,91.914162854988,26.533333333333,91.914162854988,0,45.957081427494" stroke="#000" stroke-opacity="0.02" fill-opacity="0.028666666666667" fill="#222" transform="translate(-53.066666666667, 45.957081427494)" /><polyline points="0,45.957081427494,26.533333333333,0,79.6,0,106.13333333333,45.957081427494,79.6,91.914162854988,26.533333333333,91.914162854988,0,45.957081427494" stroke="#000" stroke-opacity="0.02" fill-opacity="0.028666666666667" fill="#222" transform="translate(424.53333333333, 45.957081427494)" /><polyline points="0,45.957081427494,26.533333333333,0,79.6,0,106.13333333333,45.957081427494,79.6,91.914162854988,26.533333333333,91.914162854988,0,45.957081427494" stroke="#000" stroke-opacity="0.02" fill-opacity="0.054666666666667" fill="#ddd" transform="translate(26.533333333333, 91.914162854988)" /><polyline points="0,45.957081427494,26.533333333333,0,79.6,0,106.13333333333,45.957081427494,79.6,91.914162854988,26.533333333333,91.914162854988,0,45.957081427494" stroke="#000" stroke-opacity="0.02" fill-opacity="0.098" fill="#222" transform="translate(106.13333333333, 45.957081427494)" /><polyline points="0,45.957081427494,26.533333333333,0,79.6,0,106.13333333333,45.957081427494,79.6,91.914162854988,26.533333333333,91.914162854988,0,45.957081427494" stroke="#000" stroke-opacity="0.02" fill-opacity="0.046" fill="#222" transform="translate(185.73333333333, 91.914162854988)" /><polyline points="0,45.957081427494,26.533333333333,0,79.6,0,106.13333333333,45.957081427494,79.6,91.914162854988,26.533333333333,91.914162854988,0,45.957081427494" stroke="#000" stroke-opacity="0.02" fill-opacity="0.037333333333333" fill="#ddd" transform="translate(265.33333333333, 45.957081427494)" /><polyline points="0,45.957081427494,26.533333333333,0,79.6,0,106.13333333333,45.957081427494,79.6,91.914162854988,26.533333333333,91.914162854988,0,45.957081427494" stroke="#000" stroke-opacity="0.02" fill-opacity="0.089333333333333" fill="#ddd" transform="translate(344.93333333333, 91.914162854988)" /><polyline points="0,45.957081427494,26.533333333333,0,79.6,0,106.13333333333,45.957081427494,79.6,91.914162854988,26.533333333333,91.914162854988,0,45.957081427494" stroke="#000" stroke-opacity="0.02" fill-opacity="0.14133333333333" fill="#ddd" transform="translate(-53.066666666667, 137.87124428248)" /><polyline points="0,45.957081427494,26.533333333333,0,79.6,0,106.13333333333,45.957081427494,79.6,91.914162854988,26.533333333333,91.914162854988,0,45.957081427494" stroke="#000" stroke-opacity="0.02" fill-opacity="0.14133333333333" fill="#ddd" transform="translate(424.53333333333, 137.87124428248)" /><polyline points="0,45.957081427494,26.533333333333,0,79.6,0,106.13333333333,45.957081427494,79.6,91.914162854988,26.533333333333,91.914162854988,0,45.957081427494" stroke="#000" stroke-opacity="0.02" fill-opacity="0.10666666666667" fill="#ddd" transform="translate(26.533333333333, 183.82832570998)" /><polyline points="0,45.957081427494,26.533333333333,0,79.6,0,106.13333333333,45.957081427494,79.6,91.914162854988,26.533333333333,91.914162854988,0,45.957081427494" stroke="#000" stroke-opacity="0.02" fill-opacity="0.080666666666667" fill="#222" transform="translate(106.13333333333, 137.87124428248)" /><polyline points="0,45.957081427494,26.533333333333,0,79.6,0,106.13333333333,45.957081427494,79.6,91.914162854988,26.533333333333,91.914162854988,0,45.957081427494" stroke="#000" stroke-opacity="0.02" fill-opacity="0.13266666666667" fill="#222" transform="translate(185.73333333333, 183.82832570998)" /><polyline points="0,45.957081427494,26.533333333333,0,79.6,0,106.13333333333,45.957081427494,79.6,91.914162854988,26.533333333333,91.914162854988,0,45.957081427494" stroke="#000" stroke-opacity="0.02" fill-opacity="0.02" fill="#ddd" transform="translate(265.33333333333, 137.87124428248)" /><polyline points="0,45.957081427494,26.533333333333,0,79.6,0,106.13333333333,45.957081427494,79.6,91.914162854988,26.533333333333,91.914162854988,0,45.957081427494" stroke="#000" stroke-opacity="0.02" fill-opacity="0.054666666666667" fill="#ddd" transform="translate(344.93333333333, 183.82832570998)" /><polyline points="0,45.957081427494,26.533333333333,0,79.6,0,106.13333333333,45.957081427494,79.6,91.914162854988,26.533333333333,91.914162854988,0,45.957081427494" stroke="#000" stroke-opacity="0.02" fill-opacity="0.124" fill="#ddd" transform="translate(-53.066666666667, 229.78540713747)" /><polyline points="0,45.957081427494,26.533333333333,0,79.6,0,106.13333333333,45.957081427494,79.6,91.914162854988,26.533333333333,91.914162854988,0,45.957081427494" stroke="#000" stroke-opacity="0.02" fill-opacity="0.124" fill="#ddd" transform="translate(424.53333333333, 229.78540713747)" /><polyline points="0,45.957081427494,26.533333333333,0,79.6,0,106.13333333333,45.957081427494,79.6,91.914162854988,26.533333333333,91.914162854988,0,45.957081427494" stroke="#000" stroke-opacity="0.02" fill-opacity="0.028666666666667" fill="#222" transform="translate(26.533333333333, 275.74248856497)" /><polyline points="0,45.957081427494,26.533333333333,0,79.6,0,106.13333333333,45.957081427494,79.6,91.914162854988,26.533333333333,91.914162854988,0,45.957081427494" stroke="#000" stroke-opacity="0.02" fill-opacity="0.063333333333333" fill="#222" transform="translate(106.13333333333, 229.78540713747)" /><polyline points="0,45.957081427494,26.533333333333,0,79.6,0,106.13333333333,45.957081427494,79.6,91.914162854988,26.533333333333,91.914162854988,0,45.957081427494" stroke="#000" stroke-opacity="0.02" fill-opacity="0.063333333333333" fill="#222" transform="translate(185.73333333333, 275.74248856497)" /><polyline points="0,45.957081427494,26.533333333333,0,79.6,0,106.13333333333,45.957081427494,79.6,91.914162854988,26.533333333333,91.914162854988,0,45.957081427494" stroke="#000" stroke-opacity="0.02" fill-opacity="0.15" fill="#222" transform="translate(265.33333333333, 229.78540713747)" /><polyline points="0,45.957081427494,26.533333333333,0,79.6,0,106.13333333333,45.957081427494,79.6,91.914162854988,26.533333333333,91.914162854988,0,45.957081427494" stroke="#000" stroke-opacity="0.02" fill-opacity="0.063333333333333" fill="#222" transform="translate(344.93333333333, 275.74248856497)" /><polyline points="0,45.957081427494,26.533333333333,0,79.6,0,106.13333333333,45.957081427494,79.6,91.914162854988,26.533333333333,91.914162854988,0,45.957081427494" stroke="#000" stroke-opacity="0.02" fill-opacity="0.080666666666667" fill="#222" transform="translate(-53.066666666667, 321.69956999246)" /><polyline points="0,45.957081427494,26.533333333333,0,79.6,0,106.13333333333,45.957081427494,79.6,91.914162854988,26.533333333333,91.914162854988,0,45.957081427494" stroke="#000" stroke-opacity="0.02" fill-opacity="0.080666666666667" fill="#222" transform="translate(424.53333333333, 321.69956999246)" /><polyline points="0,45.957081427494,26.533333333333,0,79.6,0,106.13333333333,45.957081427494,79.6,91.914162854988,26.533333333333,91.914162854988,0,45.957081427494" stroke="#000" stroke-opacity="0.02" fill-opacity="0.063333333333333" fill="#222" transform="translate(26.533333333333, 367.65665141995)" /><polyline points="0,45.957081427494,26.533333333333,0,79.6,0,106.13333333333,45.957081427494,79.6,91.914162854988,26.533333333333,91.914162854988,0,45.957081427494" stroke="#000" stroke-opacity="0.02" fill-opacity="0.124" fill="#ddd" transform="translate(106.13333333333, 321.69956999246)" /><polyline points="0,45.957081427494,26.533333333333,0,79.6,0,106.13333333333,45.957081427494,79.6,91.914162854988,26.533333333333,91.914162854988,0,45.957081427494" stroke="#000" stroke-opacity="0.02" fill-opacity="0.14133333333333" fill="#ddd" transform="translate(185.73333333333, 367.65665141995)" /><polyline points="0,45.957081427494,26.533333333333,0,79.6,0,106.13333333333,45.957081427494,79.6,91.914162854988,26.533333333333,91.914162854988,0,45.957081427494" stroke="#000" stroke-opacity="0.02" fill-opacity="0.054666666666667" fill="#ddd" transform="translate(265.33333333333, 321.69956999246)" /><polyline points="0,45.957081427494,26.533333333333,0,79.6,0,106.13333333333,45.957081427494,79.6,91.914162854988,26.533333333333,91.914162854988,0,45.957081427494" stroke="#000" stroke-opacity="0.02" fill-opacity="0.02" fill="#ddd" transform="translate(344.93333333333, 367.65665141995)" /><polyline points="0,45.957081427494,26.533333333333,0,79.6,0,106.13333333333,45.957081427494,79.6,91.914162854988,26.533333333333,91.914162854988,0,45.957081427494" stroke="#000" stroke-opacity="0.02" fill-opacity="0.124" fill="#ddd" transform="translate(-53.066666666667, 413.61373284745)" /><polyline points="0,45.957081427494,26.533333333333,0,79.6,0,106.13333333333,45.957081427494,79.6,91.914162854988,26.533333333333,91.914162854988,0,45.957081427494" stroke="#000" stroke-opacity="0.02" fill-opacity="0.124" fill="#ddd" transform="translate(424.53333333333, 413.61373284745)" /><polyline points="0,45.957081427494,26.533333333333,0,79.6,0,106.13333333333,45.957081427494,79.6,91.914162854988,26.533333333333,91.914162854988,0,45.957081427494" stroke="#000" stroke-opacity="0.02" fill-opacity="0.063333333333333" fill="#222" transform="translate(26.533333333333, 459.57081427494)" /><polyline points="0,45.957081427494,26.533333333333,0,79.6,0,106.13333333333,45.957081427494,79.6,91.914162854988,26.533333333333,91.914162854988,0,45.957081427494" stroke="#000" stroke-opacity="0.02" fill-opacity="0.10666666666667" fill="#ddd" transform="translate(106.13333333333, 413.61373284745)" /><polyline points="0,45.957081427494,26.533333333333,0,79.6,0,106.13333333333,45.957081427494,79.6,91.914162854988,26.533333333333,91.914162854988,0,45.957081427494" stroke="#000" stroke-opacity="0.02" fill-opacity="0.072" fill="#ddd" transform="translate(185.73333333333, 459.57081427494)" /><polyline points="0,45.957081427494,26.533333333333,0,79.6,0,106.13333333333,45.957081427494,79.6,91.914162854988,26.533333333333,91.914162854988,0,45.957081427494" stroke="#000" stroke-opacity="0.02" fill-opacity="0.054666666666667" fill="#ddd" transform="translate(265.33333333333, 413.61373284745)" /><polyline points="0,45.957081427494,26.533333333333,0,79.6,0,106.13333333333,45.957081427494,79.6,91.914162854988,26.533333333333,91.914162854988,0,45.957081427494" stroke="#000" stroke-opacity="0.02" fill-opacity="0.098" fill="#222" transform="translate(344.93333333333, 459.57081427494)" /></svg>